Man Of Steel 2013 AviCAM SpanishDub.avi

General

Format                                   : AVI
Format/Info                              : Audio Video Interleave
File size                                : 387 MiB
Duration                                 : 1h 39mn
Overall bit rate                         : 542 Kbps
Writing application                      : Lavf52.57.1

Video

ID                                       : 0
Format                                   : xvid
Codec ID                                 : xvid
Duration                                 : 1h 39mn
Bit rate                                 : 400 Kbps
Width                                    : 608 pixels
Height                                   : 296 pixels
Display aspect ratio                     : 2.054
Frame rate                               : 30.000 fps
Bits/(Pixel*Frame)                       : 0.074
Stream size                              : 286 MiB (74%)

Audio

ID                                       : 1
Format                                   : MPEG Audio
Format version                           : Version 1
Format profile                           : Layer 3
Mode                                     : Joint stereo
Mode extension                           : MS Stereo
Codec ID                                 : 55
Codec ID/Hint                            : MP3
Duration                                 : 1h 39mn
Bit rate mode                            : Constant
Bit rate                                 : 128 Kbps
Channel(s)                               : 2 channels
Sampling rate                            : 48.0 KHz
Compression mode                         : Lossy
Stream size                              : 91.4 MiB (24%)
Alignment                                : Aligned on interleaves
Interleave, duration                     : 24 ms (0.72 video frame)



Premise

Clark Kent is a humanoid alien who after being transported to Earth from the dying planet of Krypton, was adopted as a child by Jonathan and Martha Kent. Raised with the values of his adoptive parents, he feels alienated because of his unique super powers and struggles to find his own place in life. When the world is attacked, he becomes the hero named Superman to protect Earth and its people from General Zod.



* enjoy ...
